<mxfile host="65bd71144e">
    <diagram id="h95Jl6erNYX7G5nfjj_V" name="Semantisch">
        <mxGraphModel dx="1662" dy="487" grid="1" gridSize="10" guides="1" tooltips="1" connect="1" arrows="1" fold="1" page="1" pageScale="1" pageWidth="827" pageHeight="1169" math="0" shadow="0">
            <root>
                <mxCell id="q-GRn3o725BASop5pFcT-0"/>
                <mxCell id="q-GRn3o725BASop5pFcT-1" parent="q-GRn3o725BASop5pFcT-0"/>
                <mxCell id="4xxd7vPMo3CIr23WEnG8-16" style="edgeStyle=none;html=1;entryX=0;entryY=0.5;entryDx=0;entryDy=0;endArrow=none;endFill=0;exitX=1;exitY=0.5;exitDx=0;exitDy=0;" edge="1" parent="q-GRn3o725BASop5pFcT-1" source="4xxd7vPMo3CIr23WEnG8-78" target="4xxd7vPMo3CIr23WEnG8-15">
                    <mxGeometry relative="1" as="geometry">
                        <mxPoint x="230" y="122.5" as="sourcePoint"/>
                    </mxGeometry>
                </mxCell>
                <mxCell id="4xxd7vPMo3CIr23WEnG8-17" style="edgeStyle=none;html=1;entryX=0;entryY=0.5;entryDx=0;entryDy=0;endArrow=none;endFill=0;" edge="1" parent="q-GRn3o725BASop5pFcT-1" source="4xxd7vPMo3CIr23WEnG8-15" target="4xxd7vPMo3CIr23WEnG8-81">
                    <mxGeometry relative="1" as="geometry">
                        <mxPoint x="470.0000000000002" y="122.5" as="targetPoint"/>
                    </mxGeometry>
                </mxCell>
                <mxCell id="4xxd7vPMo3CIr23WEnG8-15" value="hat_PermissionGroup" style="rhombus;whiteSpace=wrap;html=1;" vertex="1" parent="q-GRn3o725BASop5pFcT-1">
                    <mxGeometry x="260" y="102.5" width="170" height="40" as="geometry"/>
                </mxCell>
                <mxCell id="4xxd7vPMo3CIr23WEnG8-18" value="1,1" style="text;html=1;align=center;verticalAlign=middle;resizable=0;points=[];autosize=1;strokeColor=none;fillColor=none;" vertex="1" parent="q-GRn3o725BASop5pFcT-1">
                    <mxGeometry x="230" y="102.5" width="30" height="20" as="geometry"/>
                </mxCell>
                <mxCell id="4xxd7vPMo3CIr23WEnG8-19" value="0,N" style="text;html=1;align=center;verticalAlign=middle;resizable=0;points=[];autosize=1;strokeColor=none;fillColor=none;" vertex="1" parent="q-GRn3o725BASop5pFcT-1">
                    <mxGeometry x="440" y="102.5" width="30" height="20" as="geometry"/>
                </mxCell>
                <mxCell id="4xxd7vPMo3CIr23WEnG8-26" value="Kundenprojekt" style="swimlane;fontStyle=0;childLayout=stackLayout;horizontal=1;startSize=30;horizontalStack=0;resizeParent=1;resizeParentMax=0;resizeLast=0;collapsible=1;marginBottom=0;" vertex="1" parent="q-GRn3o725BASop5pFcT-1">
                    <mxGeometry x="-280" y="125" width="160" height="110" as="geometry"/>
                </mxCell>
                <mxCell id="4xxd7vPMo3CIr23WEnG8-111" value="&lt;u&gt;kundenprojekt_id: uuid&lt;/u&gt;" style="text;html=1;align=center;verticalAlign=middle;resizable=0;points=[];autosize=1;strokeColor=none;fillColor=none;" vertex="1" parent="4xxd7vPMo3CIr23WEnG8-26">
                    <mxGeometry y="30" width="160" height="20" as="geometry"/>
                </mxCell>
                <mxCell id="4xxd7vPMo3CIr23WEnG8-112" value="titel: varchar(255)" style="text;html=1;align=center;verticalAlign=middle;resizable=0;points=[];autosize=1;strokeColor=none;fillColor=none;" vertex="1" parent="4xxd7vPMo3CIr23WEnG8-26">
                    <mxGeometry y="50" width="160" height="20" as="geometry"/>
                </mxCell>
                <mxCell id="4xxd7vPMo3CIr23WEnG8-113" value="beschreibung: varchar(255)" style="text;html=1;align=center;verticalAlign=middle;resizable=0;points=[];autosize=1;strokeColor=none;fillColor=none;" vertex="1" parent="4xxd7vPMo3CIr23WEnG8-26">
                    <mxGeometry y="70" width="160" height="20" as="geometry"/>
                </mxCell>
                <mxCell id="4xxd7vPMo3CIr23WEnG8-114" value="needed_skills: varchar(255)" style="text;html=1;align=center;verticalAlign=middle;resizable=0;points=[];autosize=1;strokeColor=none;fillColor=none;" vertex="1" parent="4xxd7vPMo3CIr23WEnG8-26">
                    <mxGeometry y="90" width="160" height="20" as="geometry"/>
                </mxCell>
                <mxCell id="4xxd7vPMo3CIr23WEnG8-69" style="edgeStyle=none;html=1;entryX=0.5;entryY=1;entryDx=0;entryDy=0;endArrow=none;endFill=0;" edge="1" parent="q-GRn3o725BASop5pFcT-1" source="4xxd7vPMo3CIr23WEnG8-35" target="4xxd7vPMo3CIr23WEnG8-62">
                    <mxGeometry relative="1" as="geometry"/>
                </mxCell>
                <mxCell id="4xxd7vPMo3CIr23WEnG8-35" value="Entwickler" style="swimlane;fontStyle=0;childLayout=stackLayout;horizontal=1;startSize=30;horizontalStack=0;resizeParent=1;resizeParentMax=0;resizeLast=0;collapsible=1;marginBottom=0;" vertex="1" parent="q-GRn3o725BASop5pFcT-1">
                    <mxGeometry x="200" y="352.5" width="140" height="90" as="geometry"/>
                </mxCell>
                <mxCell id="4xxd7vPMo3CIr23WEnG8-104" value="&lt;u&gt;entwickler_id: uuid&lt;/u&gt;" style="text;html=1;align=center;verticalAlign=middle;resizable=0;points=[];autosize=1;strokeColor=none;fillColor=none;" vertex="1" parent="4xxd7vPMo3CIr23WEnG8-35">
                    <mxGeometry y="30" width="140" height="20" as="geometry"/>
                </mxCell>
                <mxCell id="4xxd7vPMo3CIr23WEnG8-98" value="name: varchar(255)" style="text;html=1;align=center;verticalAlign=middle;resizable=0;points=[];autosize=1;strokeColor=none;fillColor=none;" vertex="1" parent="4xxd7vPMo3CIr23WEnG8-35">
                    <mxGeometry y="50" width="140" height="20" as="geometry"/>
                </mxCell>
                <mxCell id="4xxd7vPMo3CIr23WEnG8-99" value="vorname: varchar(255)" style="text;html=1;align=center;verticalAlign=middle;resizable=0;points=[];autosize=1;strokeColor=none;fillColor=none;" vertex="1" parent="4xxd7vPMo3CIr23WEnG8-35">
                    <mxGeometry y="70" width="140" height="20" as="geometry"/>
                </mxCell>
                <mxCell id="4xxd7vPMo3CIr23WEnG8-68" style="edgeStyle=none;html=1;entryX=0.5;entryY=1;entryDx=0;entryDy=0;endArrow=none;endFill=0;" edge="1" parent="q-GRn3o725BASop5pFcT-1" source="4xxd7vPMo3CIr23WEnG8-38" target="4xxd7vPMo3CIr23WEnG8-63">
                    <mxGeometry relative="1" as="geometry"/>
                </mxCell>
                <mxCell id="4xxd7vPMo3CIr23WEnG8-85" style="edgeStyle=none;html=1;endArrow=none;endFill=0;" edge="1" parent="q-GRn3o725BASop5pFcT-1" source="4xxd7vPMo3CIr23WEnG8-38" target="4xxd7vPMo3CIr23WEnG8-84">
                    <mxGeometry relative="1" as="geometry"/>
                </mxCell>
                <mxCell id="4xxd7vPMo3CIr23WEnG8-38" value="Manager" style="swimlane;fontStyle=0;childLayout=stackLayout;horizontal=1;startSize=30;horizontalStack=0;resizeParent=1;resizeParentMax=0;resizeLast=0;collapsible=1;marginBottom=0;" vertex="1" parent="q-GRn3o725BASop5pFcT-1">
                    <mxGeometry x="454" y="352.5" width="140" height="90" as="geometry"/>
                </mxCell>
                <mxCell id="4xxd7vPMo3CIr23WEnG8-105" value="&lt;u&gt;manager_id: uuid&lt;/u&gt;" style="text;html=1;align=center;verticalAlign=middle;resizable=0;points=[];autosize=1;strokeColor=none;fillColor=none;" vertex="1" parent="4xxd7vPMo3CIr23WEnG8-38">
                    <mxGeometry y="30" width="140" height="20" as="geometry"/>
                </mxCell>
                <mxCell id="4xxd7vPMo3CIr23WEnG8-100" value="name: varchar(255)" style="text;html=1;align=center;verticalAlign=middle;resizable=0;points=[];autosize=1;strokeColor=none;fillColor=none;" vertex="1" parent="4xxd7vPMo3CIr23WEnG8-38">
                    <mxGeometry y="50" width="140" height="20" as="geometry"/>
                </mxCell>
                <mxCell id="4xxd7vPMo3CIr23WEnG8-101" value="vorname: varchar(255)" style="text;html=1;align=center;verticalAlign=middle;resizable=0;points=[];autosize=1;strokeColor=none;fillColor=none;" vertex="1" parent="4xxd7vPMo3CIr23WEnG8-38">
                    <mxGeometry y="70" width="140" height="20" as="geometry"/>
                </mxCell>
                <mxCell id="4xxd7vPMo3CIr23WEnG8-65" style="edgeStyle=none;html=1;entryX=0.5;entryY=1;entryDx=0;entryDy=0;endArrow=none;endFill=0;" edge="1" parent="q-GRn3o725BASop5pFcT-1" source="4xxd7vPMo3CIr23WEnG8-41" target="4xxd7vPMo3CIr23WEnG8-64">
                    <mxGeometry relative="1" as="geometry"/>
                </mxCell>
                <mxCell id="4xxd7vPMo3CIr23WEnG8-41" value="Reviewer" style="swimlane;fontStyle=0;childLayout=stackLayout;horizontal=1;startSize=30;horizontalStack=0;resizeParent=1;resizeParentMax=0;resizeLast=0;collapsible=1;marginBottom=0;" vertex="1" parent="q-GRn3o725BASop5pFcT-1">
                    <mxGeometry x="660" y="352.5" width="140" height="90" as="geometry"/>
                </mxCell>
                <mxCell id="4xxd7vPMo3CIr23WEnG8-106" value="&lt;u&gt;reviewer_id: uuid&lt;/u&gt;" style="text;html=1;align=center;verticalAlign=middle;resizable=0;points=[];autosize=1;strokeColor=none;fillColor=none;" vertex="1" parent="4xxd7vPMo3CIr23WEnG8-41">
                    <mxGeometry y="30" width="140" height="20" as="geometry"/>
                </mxCell>
                <mxCell id="4xxd7vPMo3CIr23WEnG8-102" value="name: varchar(255)" style="text;html=1;align=center;verticalAlign=middle;resizable=0;points=[];autosize=1;strokeColor=none;fillColor=none;" vertex="1" parent="4xxd7vPMo3CIr23WEnG8-41">
                    <mxGeometry y="50" width="140" height="20" as="geometry"/>
                </mxCell>
                <mxCell id="4xxd7vPMo3CIr23WEnG8-103" value="vorname: varchar(255)" style="text;html=1;align=center;verticalAlign=middle;resizable=0;points=[];autosize=1;strokeColor=none;fillColor=none;" vertex="1" parent="4xxd7vPMo3CIr23WEnG8-41">
                    <mxGeometry y="70" width="140" height="20" as="geometry"/>
                </mxCell>
                <mxCell id="4xxd7vPMo3CIr23WEnG8-56" value="" style="edgeStyle=none;html=1;endArrow=none;endFill=0;" edge="1" parent="q-GRn3o725BASop5pFcT-1" source="4xxd7vPMo3CIr23WEnG8-44" target="4xxd7vPMo3CIr23WEnG8-55">
                    <mxGeometry relative="1" as="geometry"/>
                </mxCell>
                <mxCell id="4xxd7vPMo3CIr23WEnG8-73" value="" style="edgeStyle=none;html=1;endArrow=none;endFill=0;" edge="1" parent="q-GRn3o725BASop5pFcT-1" source="4xxd7vPMo3CIr23WEnG8-44" target="4xxd7vPMo3CIr23WEnG8-72">
                    <mxGeometry relative="1" as="geometry"/>
                </mxCell>
                <mxCell id="4xxd7vPMo3CIr23WEnG8-44" value="EntwicklerProfil" style="swimlane;fontStyle=0;childLayout=stackLayout;horizontal=1;startSize=30;horizontalStack=0;resizeParent=1;resizeParentMax=0;resizeLast=0;collapsible=1;marginBottom=0;" vertex="1" parent="q-GRn3o725BASop5pFcT-1">
                    <mxGeometry x="-275" y="380" width="145" height="90" as="geometry"/>
                </mxCell>
                <mxCell id="4xxd7vPMo3CIr23WEnG8-152" value="&lt;u&gt;entwickler_profil_id: uuid&lt;/u&gt;" style="text;html=1;align=center;verticalAlign=middle;resizable=0;points=[];autosize=1;strokeColor=none;fillColor=none;" vertex="1" parent="4xxd7vPMo3CIr23WEnG8-44">
                    <mxGeometry y="30" width="145" height="20" as="geometry"/>
                </mxCell>
                <mxCell id="4xxd7vPMo3CIr23WEnG8-118" value="image: blob" style="text;html=1;align=center;verticalAlign=middle;resizable=0;points=[];autosize=1;strokeColor=none;fillColor=none;" vertex="1" parent="4xxd7vPMo3CIr23WEnG8-44">
                    <mxGeometry y="50" width="145" height="20" as="geometry"/>
                </mxCell>
                <mxCell id="4xxd7vPMo3CIr23WEnG8-117" value="Telefon: varchar(255)" style="text;html=1;align=center;verticalAlign=middle;resizable=0;points=[];autosize=1;strokeColor=none;fillColor=none;" vertex="1" parent="4xxd7vPMo3CIr23WEnG8-44">
                    <mxGeometry y="70" width="145" height="20" as="geometry"/>
                </mxCell>
                <mxCell id="4xxd7vPMo3CIr23WEnG8-121" style="edgeStyle=none;html=1;entryX=0;entryY=0.5;entryDx=0;entryDy=0;endArrow=none;endFill=0;" edge="1" parent="q-GRn3o725BASop5pFcT-1" source="4xxd7vPMo3CIr23WEnG8-47" target="4xxd7vPMo3CIr23WEnG8-120">
                    <mxGeometry relative="1" as="geometry"/>
                </mxCell>
                <mxCell id="4xxd7vPMo3CIr23WEnG8-47" value="Skill" style="swimlane;fontStyle=0;childLayout=stackLayout;horizontal=1;startSize=30;horizontalStack=0;resizeParent=1;resizeParentMax=0;resizeLast=0;collapsible=1;marginBottom=0;" vertex="1" parent="q-GRn3o725BASop5pFcT-1">
                    <mxGeometry x="-275" y="570" width="140" height="50" as="geometry"/>
                </mxCell>
                <mxCell id="4xxd7vPMo3CIr23WEnG8-155" value="&lt;u&gt;skill_id: uuid&lt;/u&gt;" style="text;html=1;align=center;verticalAlign=middle;resizable=0;points=[];autosize=1;strokeColor=none;fillColor=none;" vertex="1" parent="4xxd7vPMo3CIr23WEnG8-47">
                    <mxGeometry y="30" width="140" height="20" as="geometry"/>
                </mxCell>
                <mxCell id="4xxd7vPMo3CIr23WEnG8-51" style="edgeStyle=none;html=1;endArrow=none;endFill=0;exitX=0.5;exitY=0;exitDx=0;exitDy=0;" edge="1" parent="q-GRn3o725BASop5pFcT-1" source="4xxd7vPMo3CIr23WEnG8-50">
                    <mxGeometry relative="1" as="geometry">
                        <mxPoint x="-199.95945945945937" y="470.0077220077219" as="sourcePoint"/>
                        <mxPoint x="-205" y="440" as="targetPoint"/>
                    </mxGeometry>
                </mxCell>
                <mxCell id="4xxd7vPMo3CIr23WEnG8-52" style="edgeStyle=none;html=1;entryX=0.5;entryY=0;entryDx=0;entryDy=0;endArrow=none;endFill=0;startArrow=none;" edge="1" parent="q-GRn3o725BASop5pFcT-1" source="4xxd7vPMo3CIr23WEnG8-50" target="4xxd7vPMo3CIr23WEnG8-47">
                    <mxGeometry relative="1" as="geometry">
                        <mxPoint x="-200" y="510" as="sourcePoint"/>
                    </mxGeometry>
                </mxCell>
                <mxCell id="4xxd7vPMo3CIr23WEnG8-53" value="0,N" style="text;html=1;align=center;verticalAlign=middle;resizable=0;points=[];autosize=1;strokeColor=none;fillColor=none;" vertex="1" parent="q-GRn3o725BASop5pFcT-1">
                    <mxGeometry x="-195" y="440" width="30" height="20" as="geometry"/>
                </mxCell>
                <mxCell id="4xxd7vPMo3CIr23WEnG8-54" value="0,N" style="text;html=1;align=center;verticalAlign=middle;resizable=0;points=[];autosize=1;strokeColor=none;fillColor=none;" vertex="1" parent="q-GRn3o725BASop5pFcT-1">
                    <mxGeometry x="-195" y="540" width="30" height="20" as="geometry"/>
                </mxCell>
                <mxCell id="4xxd7vPMo3CIr23WEnG8-57" style="edgeStyle=none;html=1;entryX=0;entryY=0.5;entryDx=0;entryDy=0;endArrow=none;endFill=0;exitX=1;exitY=0.5;exitDx=0;exitDy=0;" edge="1" parent="q-GRn3o725BASop5pFcT-1" source="4xxd7vPMo3CIr23WEnG8-55" target="4xxd7vPMo3CIr23WEnG8-35">
                    <mxGeometry relative="1" as="geometry">
                        <mxPoint x="128.37209302325573" y="387.73255813953483" as="sourcePoint"/>
                    </mxGeometry>
                </mxCell>
                <mxCell id="4xxd7vPMo3CIr23WEnG8-55" value="E_hat_Eprofil" style="rhombus;whiteSpace=wrap;html=1;fontStyle=0;startSize=30;" vertex="1" parent="q-GRn3o725BASop5pFcT-1">
                    <mxGeometry x="-70" y="367.5" width="100" height="45" as="geometry"/>
                </mxCell>
                <mxCell id="4xxd7vPMo3CIr23WEnG8-58" value="0,1" style="text;html=1;align=center;verticalAlign=middle;resizable=0;points=[];autosize=1;strokeColor=none;fillColor=none;" vertex="1" parent="q-GRn3o725BASop5pFcT-1">
                    <mxGeometry x="170" y="360" width="30" height="20" as="geometry"/>
                </mxCell>
                <mxCell id="4xxd7vPMo3CIr23WEnG8-59" value="1,1" style="text;html=1;align=center;verticalAlign=middle;resizable=0;points=[];autosize=1;strokeColor=none;fillColor=none;" vertex="1" parent="q-GRn3o725BASop5pFcT-1">
                    <mxGeometry x="-130" y="412.5" width="30" height="20" as="geometry"/>
                </mxCell>
                <mxCell id="4xxd7vPMo3CIr23WEnG8-70" style="edgeStyle=none;html=1;entryX=0.5;entryY=1;entryDx=0;entryDy=0;endArrow=none;endFill=0;" edge="1" parent="q-GRn3o725BASop5pFcT-1" source="4xxd7vPMo3CIr23WEnG8-62" target="4xxd7vPMo3CIr23WEnG8-81">
                    <mxGeometry relative="1" as="geometry">
                        <mxPoint x="530.0000000000002" y="152.5" as="targetPoint"/>
                    </mxGeometry>
                </mxCell>
                <mxCell id="4xxd7vPMo3CIr23WEnG8-62" value="E_hat_User" style="rhombus;whiteSpace=wrap;html=1;" vertex="1" parent="q-GRn3o725BASop5pFcT-1">
                    <mxGeometry x="330" y="222.5" width="80" height="50" as="geometry"/>
                </mxCell>
                <mxCell id="4xxd7vPMo3CIr23WEnG8-67" style="edgeStyle=none;html=1;endArrow=none;endFill=0;entryX=0.5;entryY=1;entryDx=0;entryDy=0;" edge="1" parent="q-GRn3o725BASop5pFcT-1" source="4xxd7vPMo3CIr23WEnG8-63" target="4xxd7vPMo3CIr23WEnG8-81">
                    <mxGeometry relative="1" as="geometry">
                        <mxPoint x="530" y="152.5" as="targetPoint"/>
                    </mxGeometry>
                </mxCell>
                <mxCell id="4xxd7vPMo3CIr23WEnG8-63" value="M_hat_User" style="rhombus;whiteSpace=wrap;html=1;" vertex="1" parent="q-GRn3o725BASop5pFcT-1">
                    <mxGeometry x="490" y="222.5" width="80" height="55" as="geometry"/>
                </mxCell>
                <mxCell id="4xxd7vPMo3CIr23WEnG8-66" style="edgeStyle=none;html=1;entryX=0.5;entryY=1;entryDx=0;entryDy=0;endArrow=none;endFill=0;" edge="1" parent="q-GRn3o725BASop5pFcT-1" source="4xxd7vPMo3CIr23WEnG8-64" target="4xxd7vPMo3CIr23WEnG8-81">
                    <mxGeometry relative="1" as="geometry">
                        <mxPoint x="530.0000000000002" y="152.5" as="targetPoint"/>
                    </mxGeometry>
                </mxCell>
                <mxCell id="4xxd7vPMo3CIr23WEnG8-64" value="R_hat_User" style="rhombus;whiteSpace=wrap;html=1;" vertex="1" parent="q-GRn3o725BASop5pFcT-1">
                    <mxGeometry x="700" y="222.5" width="80" height="50" as="geometry"/>
                </mxCell>
                <mxCell id="4xxd7vPMo3CIr23WEnG8-74" style="edgeStyle=none;html=1;entryX=0.5;entryY=1;entryDx=0;entryDy=0;endArrow=none;endFill=0;" edge="1" parent="q-GRn3o725BASop5pFcT-1" source="4xxd7vPMo3CIr23WEnG8-72" target="4xxd7vPMo3CIr23WEnG8-26">
                    <mxGeometry relative="1" as="geometry"/>
                </mxCell>
                <mxCell id="4xxd7vPMo3CIr23WEnG8-72" value="EProfil_ist_in_Kp" style="rhombus;whiteSpace=wrap;html=1;fontStyle=0;startSize=30;" vertex="1" parent="q-GRn3o725BASop5pFcT-1">
                    <mxGeometry x="-255" y="280" width="110" height="50" as="geometry"/>
                </mxCell>
                <mxCell id="4xxd7vPMo3CIr23WEnG8-75" value="0,N" style="text;html=1;align=center;verticalAlign=middle;resizable=0;points=[];autosize=1;strokeColor=none;fillColor=none;" vertex="1" parent="q-GRn3o725BASop5pFcT-1">
                    <mxGeometry x="-195" y="235" width="30" height="20" as="geometry"/>
                </mxCell>
                <mxCell id="4xxd7vPMo3CIr23WEnG8-76" value="0,N" style="text;html=1;align=center;verticalAlign=middle;resizable=0;points=[];autosize=1;strokeColor=none;fillColor=none;" vertex="1" parent="q-GRn3o725BASop5pFcT-1">
                    <mxGeometry x="-230" y="360" width="30" height="20" as="geometry"/>
                </mxCell>
                <mxCell id="4xxd7vPMo3CIr23WEnG8-78" value="Permission_Group" style="swimlane;fontStyle=0;childLayout=stackLayout;horizontal=1;startSize=30;horizontalStack=0;resizeParent=1;resizeParentMax=0;resizeLast=0;collapsible=1;marginBottom=0;" vertex="1" parent="q-GRn3o725BASop5pFcT-1">
                    <mxGeometry x="90" y="92.5" width="140" height="70" as="geometry"/>
                </mxCell>
                <mxCell id="4xxd7vPMo3CIr23WEnG8-149" value="&lt;u&gt;group_id: uuid&lt;/u&gt;" style="text;html=1;align=center;verticalAlign=middle;resizable=0;points=[];autosize=1;strokeColor=none;fillColor=none;" vertex="1" parent="4xxd7vPMo3CIr23WEnG8-78">
                    <mxGeometry y="30" width="140" height="20" as="geometry"/>
                </mxCell>
                <mxCell id="4xxd7vPMo3CIr23WEnG8-150" value="group_name: varchar(255)" style="text;html=1;align=center;verticalAlign=middle;resizable=0;points=[];autosize=1;strokeColor=none;fillColor=none;" vertex="1" parent="4xxd7vPMo3CIr23WEnG8-78">
                    <mxGeometry y="50" width="140" height="20" as="geometry"/>
                </mxCell>
                <mxCell id="4xxd7vPMo3CIr23WEnG8-81" value="User" style="swimlane;fontStyle=0;childLayout=stackLayout;horizontal=1;startSize=30;horizontalStack=0;resizeParent=1;resizeParentMax=0;resizeLast=0;collapsible=1;marginBottom=0;" vertex="1" parent="q-GRn3o725BASop5pFcT-1">
                    <mxGeometry x="470" y="92.5" width="140" height="110" as="geometry"/>
                </mxCell>
                <mxCell id="4xxd7vPMo3CIr23WEnG8-91" value="&lt;u&gt;user_id: uuid&lt;/u&gt;" style="text;html=1;align=center;verticalAlign=middle;resizable=0;points=[];autosize=1;strokeColor=none;fillColor=none;" vertex="1" parent="4xxd7vPMo3CIr23WEnG8-81">
                    <mxGeometry y="30" width="140" height="20" as="geometry"/>
                </mxCell>
                <mxCell id="4xxd7vPMo3CIr23WEnG8-92" value="email: varchar(255)" style="text;html=1;align=center;verticalAlign=middle;resizable=0;points=[];autosize=1;strokeColor=none;fillColor=none;" vertex="1" parent="4xxd7vPMo3CIr23WEnG8-81">
                    <mxGeometry y="50" width="140" height="20" as="geometry"/>
                </mxCell>
                <mxCell id="4xxd7vPMo3CIr23WEnG8-107" value="username: varchar(255)&lt;span style=&quot;color: rgba(0 , 0 , 0 , 0) ; font-family: monospace ; font-size: 0px&quot;&gt;3CmxGraphModel%3E%3Croot%3E%3CmxCell%20id%3D%220%22%2F%3E%3CmxCell%20id%3D%221%22%20parent%3D%220%22%2F%3E%3CmxCell%20id%3D%222%22%20value%3D%22%26lt%3Bu%26gt%3Buser_id%3A%20uuid%26lt%3B%2Fu%26gt%3B%22%20style%3D%22text%3Bhtml%3D1%3Balign%3Dcenter%3BverticalAlign%3Dmiddle%3Bresizable%3D0%3Bpoints%3D%5B%5D%3Bautosize%3D1%3BstrokeColor%3Dnone%3BfillColor%3Dnone%3B%22%20vertex%3D%221%22%20parent%3D%221%22%3E%3CmxGeometry%20x%3D%22360%22%20y%3D%22130%22%20width%3D%22140%22%20height%3D%2220%22%20as%3D%22geometry%22%2F%3E%3C%2FmxCell%3E%3C%2Froot%3E%3C%2FmxGraphModel%3E&lt;/span&gt;" style="text;html=1;align=center;verticalAlign=middle;resizable=0;points=[];autosize=1;strokeColor=none;fillColor=none;" vertex="1" parent="4xxd7vPMo3CIr23WEnG8-81">
                    <mxGeometry y="70" width="140" height="20" as="geometry"/>
                </mxCell>
                <mxCell id="4xxd7vPMo3CIr23WEnG8-95" value="passwort: varchar(255)" style="text;html=1;align=center;verticalAlign=middle;resizable=0;points=[];autosize=1;strokeColor=none;fillColor=none;" vertex="1" parent="4xxd7vPMo3CIr23WEnG8-81">
                    <mxGeometry y="90" width="140" height="20" as="geometry"/>
                </mxCell>
                <mxCell id="4xxd7vPMo3CIr23WEnG8-86" style="edgeStyle=none;html=1;endArrow=none;endFill=0;entryX=0;entryY=0.5;entryDx=0;entryDy=0;" edge="1" parent="q-GRn3o725BASop5pFcT-1" source="4xxd7vPMo3CIr23WEnG8-84" target="4xxd7vPMo3CIr23WEnG8-26">
                    <mxGeometry relative="1" as="geometry">
                        <mxPoint x="-330" y="140" as="targetPoint"/>
                        <Array as="points">
                            <mxPoint x="-340" y="675"/>
                            <mxPoint x="-340" y="180"/>
                        </Array>
                    </mxGeometry>
                </mxCell>
                <mxCell id="4xxd7vPMo3CIr23WEnG8-84" value="M_erstellt_Kp" style="rhombus;whiteSpace=wrap;html=1;fontStyle=0;startSize=30;" vertex="1" parent="q-GRn3o725BASop5pFcT-1">
                    <mxGeometry x="464" y="652.5" width="120" height="45" as="geometry"/>
                </mxCell>
                <mxCell id="4xxd7vPMo3CIr23WEnG8-87" value="0,N" style="text;html=1;align=center;verticalAlign=middle;resizable=0;points=[];autosize=1;strokeColor=none;fillColor=none;" vertex="1" parent="q-GRn3o725BASop5pFcT-1">
                    <mxGeometry x="524" y="442.5" width="30" height="20" as="geometry"/>
                </mxCell>
                <mxCell id="4xxd7vPMo3CIr23WEnG8-88" value="1,1" style="text;html=1;align=center;verticalAlign=middle;resizable=0;points=[];autosize=1;strokeColor=none;fillColor=none;" vertex="1" parent="q-GRn3o725BASop5pFcT-1">
                    <mxGeometry x="-310" y="180" width="30" height="20" as="geometry"/>
                </mxCell>
                <mxCell id="4xxd7vPMo3CIr23WEnG8-90" style="edgeStyle=none;html=1;entryX=1;entryY=0.5;entryDx=0;entryDy=0;endArrow=none;endFill=0;" edge="1" parent="q-GRn3o725BASop5pFcT-1" source="4xxd7vPMo3CIr23WEnG8-89" target="4xxd7vPMo3CIr23WEnG8-41">
                    <mxGeometry relative="1" as="geometry"/>
                </mxCell>
                <mxCell id="4xxd7vPMo3CIr23WEnG8-89" value="Zuweisung von EProfil zu Kp" style="shape=note;whiteSpace=wrap;html=1;backgroundOutline=1;darkOpacity=0.05;" vertex="1" parent="q-GRn3o725BASop5pFcT-1">
                    <mxGeometry x="820" y="277.5" width="80" height="100" as="geometry"/>
                </mxCell>
                <mxCell id="4xxd7vPMo3CIr23WEnG8-109" style="edgeStyle=none;html=1;entryX=0.995;entryY=0.48;entryDx=0;entryDy=0;entryPerimeter=0;endArrow=none;endFill=0;" edge="1" parent="q-GRn3o725BASop5pFcT-1" source="4xxd7vPMo3CIr23WEnG8-108" target="4xxd7vPMo3CIr23WEnG8-95">
                    <mxGeometry relative="1" as="geometry"/>
                </mxCell>
                <mxCell id="4xxd7vPMo3CIr23WEnG8-108" value="min. 8 chars" style="shape=note;whiteSpace=wrap;html=1;backgroundOutline=1;darkOpacity=0.05;size=13;" vertex="1" parent="q-GRn3o725BASop5pFcT-1">
                    <mxGeometry x="640" y="122.5" width="60" height="60" as="geometry"/>
                </mxCell>
                <mxCell id="4xxd7vPMo3CIr23WEnG8-50" value="EntwicklerProfil_hat_Skills" style="rhombus;whiteSpace=wrap;html=1;" vertex="1" parent="q-GRn3o725BASop5pFcT-1">
                    <mxGeometry x="-310" y="490" width="210" height="40" as="geometry"/>
                </mxCell>
                <mxCell id="4xxd7vPMo3CIr23WEnG8-122" style="edgeStyle=none;html=1;entryX=1;entryY=0.5;entryDx=0;entryDy=0;endArrow=none;endFill=0;" edge="1" parent="q-GRn3o725BASop5pFcT-1" source="4xxd7vPMo3CIr23WEnG8-119" target="4xxd7vPMo3CIr23WEnG8-120">
                    <mxGeometry relative="1" as="geometry">
                        <mxPoint x="110" y="592.5" as="targetPoint"/>
                    </mxGeometry>
                </mxCell>
                <mxCell id="4xxd7vPMo3CIr23WEnG8-119" value="Bewertung" style="swimlane;fontStyle=0;childLayout=stackLayout;horizontal=1;startSize=30;horizontalStack=0;resizeParent=1;resizeParentMax=0;resizeLast=0;collapsible=1;marginBottom=0;" vertex="1" parent="q-GRn3o725BASop5pFcT-1">
                    <mxGeometry x="150" y="547.5" width="140" height="90" as="geometry"/>
                </mxCell>
                <mxCell id="4xxd7vPMo3CIr23WEnG8-151" value="&lt;u&gt;bewertung_id: uuid&lt;/u&gt;" style="text;html=1;align=center;verticalAlign=middle;resizable=0;points=[];autosize=1;strokeColor=none;fillColor=none;" vertex="1" parent="4xxd7vPMo3CIr23WEnG8-119">
                    <mxGeometry y="30" width="140" height="20" as="geometry"/>
                </mxCell>
                <mxCell id="4xxd7vPMo3CIr23WEnG8-153" value="value: number" style="text;html=1;align=center;verticalAlign=middle;resizable=0;points=[];autosize=1;strokeColor=none;fillColor=none;" vertex="1" parent="4xxd7vPMo3CIr23WEnG8-119">
                    <mxGeometry y="50" width="140" height="20" as="geometry"/>
                </mxCell>
                <mxCell id="4xxd7vPMo3CIr23WEnG8-154" value="timestamp: date" style="text;html=1;align=center;verticalAlign=middle;resizable=0;points=[];autosize=1;strokeColor=none;fillColor=none;" vertex="1" parent="4xxd7vPMo3CIr23WEnG8-119">
                    <mxGeometry y="70" width="140" height="20" as="geometry"/>
                </mxCell>
                <mxCell id="4xxd7vPMo3CIr23WEnG8-120" value="S_hat_Be" style="rhombus;whiteSpace=wrap;html=1;fontStyle=0;startSize=30;" vertex="1" parent="q-GRn3o725BASop5pFcT-1">
                    <mxGeometry x="-100" y="577.5" width="100" height="45" as="geometry"/>
                </mxCell>
                <mxCell id="4xxd7vPMo3CIr23WEnG8-123" value="0,N" style="text;html=1;align=center;verticalAlign=middle;resizable=0;points=[];autosize=1;strokeColor=none;fillColor=none;" vertex="1" parent="q-GRn3o725BASop5pFcT-1">
                    <mxGeometry x="-130" y="577.5" width="30" height="20" as="geometry"/>
                </mxCell>
                <mxCell id="4xxd7vPMo3CIr23WEnG8-124" value="1,1" style="text;html=1;align=center;verticalAlign=middle;resizable=0;points=[];autosize=1;strokeColor=none;fillColor=none;" vertex="1" parent="q-GRn3o725BASop5pFcT-1">
                    <mxGeometry x="120" y="570" width="30" height="20" as="geometry"/>
                </mxCell>
                <mxCell id="4xxd7vPMo3CIr23WEnG8-128" style="edgeStyle=none;html=1;entryX=1;entryY=0.5;entryDx=0;entryDy=0;endArrow=none;endFill=0;" edge="1" parent="q-GRn3o725BASop5pFcT-1" source="4xxd7vPMo3CIr23WEnG8-126" target="4xxd7vPMo3CIr23WEnG8-119">
                    <mxGeometry relative="1" as="geometry"/>
                </mxCell>
                <mxCell id="4xxd7vPMo3CIr23WEnG8-126" value="R_erstellt_Be" style="rhombus;whiteSpace=wrap;html=1;fontStyle=0;startSize=30;" vertex="1" parent="q-GRn3o725BASop5pFcT-1">
                    <mxGeometry x="570" y="570" width="120" height="45" as="geometry"/>
                </mxCell>
                <mxCell id="4xxd7vPMo3CIr23WEnG8-127" style="edgeStyle=none;html=1;entryX=1;entryY=0.5;entryDx=0;entryDy=0;endArrow=none;endFill=0;" edge="1" parent="q-GRn3o725BASop5pFcT-1" source="4xxd7vPMo3CIr23WEnG8-103" target="4xxd7vPMo3CIr23WEnG8-126">
                    <mxGeometry relative="1" as="geometry">
                        <Array as="points">
                            <mxPoint x="730" y="592.5"/>
                        </Array>
                    </mxGeometry>
                </mxCell>
                <mxCell id="4xxd7vPMo3CIr23WEnG8-130" style="edgeStyle=none;html=1;entryX=-0.016;entryY=0.373;entryDx=0;entryDy=0;entryPerimeter=0;endArrow=none;endFill=0;" edge="1" parent="q-GRn3o725BASop5pFcT-1" source="4xxd7vPMo3CIr23WEnG8-129" target="4xxd7vPMo3CIr23WEnG8-100">
                    <mxGeometry relative="1" as="geometry">
                        <Array as="points">
                            <mxPoint x="380" y="409.5"/>
                        </Array>
                    </mxGeometry>
                </mxCell>
                <mxCell id="4xxd7vPMo3CIr23WEnG8-131" style="edgeStyle=none;html=1;entryX=1;entryY=0.5;entryDx=0;entryDy=0;endArrow=none;endFill=0;" edge="1" parent="q-GRn3o725BASop5pFcT-1" source="4xxd7vPMo3CIr23WEnG8-129" target="4xxd7vPMo3CIr23WEnG8-119">
                    <mxGeometry relative="1" as="geometry">
                        <Array as="points">
                            <mxPoint x="380" y="562.5"/>
                        </Array>
                    </mxGeometry>
                </mxCell>
                <mxCell id="4xxd7vPMo3CIr23WEnG8-129" value="M_erstellt_Be" style="rhombus;whiteSpace=wrap;html=1;fontStyle=0;startSize=30;" vertex="1" parent="q-GRn3o725BASop5pFcT-1">
                    <mxGeometry x="320" y="477.5" width="120" height="45" as="geometry"/>
                </mxCell>
                <mxCell id="4xxd7vPMo3CIr23WEnG8-132" value="0,N" style="text;html=1;align=center;verticalAlign=middle;resizable=0;points=[];autosize=1;strokeColor=none;fillColor=none;" vertex="1" parent="q-GRn3o725BASop5pFcT-1">
                    <mxGeometry x="415" y="385" width="30" height="20" as="geometry"/>
                </mxCell>
                <mxCell id="4xxd7vPMo3CIr23WEnG8-133" value="1,1" style="text;html=1;align=center;verticalAlign=middle;resizable=0;points=[];autosize=1;strokeColor=none;fillColor=none;" vertex="1" parent="q-GRn3o725BASop5pFcT-1">
                    <mxGeometry x="290" y="595" width="30" height="20" as="geometry"/>
                </mxCell>
                <mxCell id="4xxd7vPMo3CIr23WEnG8-134" value="0,N" style="text;html=1;align=center;verticalAlign=middle;resizable=0;points=[];autosize=1;strokeColor=none;fillColor=none;" vertex="1" parent="q-GRn3o725BASop5pFcT-1">
                    <mxGeometry x="740" y="442.5" width="30" height="20" as="geometry"/>
                </mxCell>
                <mxCell id="4xxd7vPMo3CIr23WEnG8-135" value="Anfrage" style="swimlane;fontStyle=0;childLayout=stackLayout;horizontal=1;startSize=30;horizontalStack=0;resizeParent=1;resizeParentMax=0;resizeLast=0;collapsible=1;marginBottom=0;" vertex="1" parent="q-GRn3o725BASop5pFcT-1">
                    <mxGeometry x="110" y="187.5" width="140" height="50" as="geometry"/>
                </mxCell>
                <mxCell id="4xxd7vPMo3CIr23WEnG8-156" value="&lt;u&gt;anfrage_id: uuid&lt;/u&gt;" style="text;html=1;align=center;verticalAlign=middle;resizable=0;points=[];autosize=1;strokeColor=none;fillColor=none;" vertex="1" parent="4xxd7vPMo3CIr23WEnG8-135">
                    <mxGeometry y="30" width="140" height="20" as="geometry"/>
                </mxCell>
                <mxCell id="4xxd7vPMo3CIr23WEnG8-137" style="edgeStyle=none;html=1;entryX=0;entryY=0;entryDx=0;entryDy=0;endArrow=none;endFill=0;" edge="1" parent="q-GRn3o725BASop5pFcT-1" source="4xxd7vPMo3CIr23WEnG8-136" target="4xxd7vPMo3CIr23WEnG8-38">
                    <mxGeometry relative="1" as="geometry"/>
                </mxCell>
                <mxCell id="4xxd7vPMo3CIr23WEnG8-138" style="edgeStyle=none;html=1;entryX=0.5;entryY=1;entryDx=0;entryDy=0;endArrow=none;endFill=0;" edge="1" parent="q-GRn3o725BASop5pFcT-1" source="4xxd7vPMo3CIr23WEnG8-136" target="4xxd7vPMo3CIr23WEnG8-135">
                    <mxGeometry relative="1" as="geometry"/>
                </mxCell>
                <mxCell id="4xxd7vPMo3CIr23WEnG8-136" value="Ma_erstellt_A" style="rhombus;whiteSpace=wrap;html=1;fontStyle=0;startSize=30;" vertex="1" parent="q-GRn3o725BASop5pFcT-1">
                    <mxGeometry x="130" y="275" width="100" height="45" as="geometry"/>
                </mxCell>
                <mxCell id="4xxd7vPMo3CIr23WEnG8-139" value="0,N" style="text;html=1;align=center;verticalAlign=middle;resizable=0;points=[];autosize=1;strokeColor=none;fillColor=none;" vertex="1" parent="q-GRn3o725BASop5pFcT-1">
                    <mxGeometry x="445" y="332.5" width="30" height="20" as="geometry"/>
                </mxCell>
                <mxCell id="4xxd7vPMo3CIr23WEnG8-142" style="edgeStyle=none;html=1;entryX=0;entryY=0.5;entryDx=0;entryDy=0;endArrow=none;endFill=0;" edge="1" parent="q-GRn3o725BASop5pFcT-1" source="4xxd7vPMo3CIr23WEnG8-140" target="4xxd7vPMo3CIr23WEnG8-135">
                    <mxGeometry relative="1" as="geometry"/>
                </mxCell>
                <mxCell id="4xxd7vPMo3CIr23WEnG8-143" style="edgeStyle=none;html=1;endArrow=none;endFill=0;" edge="1" parent="q-GRn3o725BASop5pFcT-1" source="4xxd7vPMo3CIr23WEnG8-140" target="4xxd7vPMo3CIr23WEnG8-44">
                    <mxGeometry relative="1" as="geometry"/>
                </mxCell>
                <mxCell id="4xxd7vPMo3CIr23WEnG8-140" value="A_an_EntProfil" style="rhombus;whiteSpace=wrap;html=1;fontStyle=0;startSize=30;" vertex="1" parent="q-GRn3o725BASop5pFcT-1">
                    <mxGeometry x="-50" y="287.5" width="100" height="45" as="geometry"/>
                </mxCell>
                <mxCell id="4xxd7vPMo3CIr23WEnG8-145" value="0,N" style="text;html=1;align=center;verticalAlign=middle;resizable=0;points=[];autosize=1;strokeColor=none;fillColor=none;" vertex="1" parent="q-GRn3o725BASop5pFcT-1">
                    <mxGeometry x="-150" y="360" width="30" height="20" as="geometry"/>
                </mxCell>
                <mxCell id="4xxd7vPMo3CIr23WEnG8-146" value="1,1" style="text;html=1;align=center;verticalAlign=middle;resizable=0;points=[];autosize=1;strokeColor=none;fillColor=none;" vertex="1" parent="q-GRn3o725BASop5pFcT-1">
                    <mxGeometry x="80" y="235" width="30" height="20" as="geometry"/>
                </mxCell>
                <mxCell id="4xxd7vPMo3CIr23WEnG8-147" value="1,1" style="text;html=1;align=center;verticalAlign=middle;resizable=0;points=[];autosize=1;strokeColor=none;fillColor=none;" vertex="1" parent="q-GRn3o725BASop5pFcT-1">
                    <mxGeometry x="185" y="247.5" width="30" height="20" as="geometry"/>
                </mxCell>
            </root>
        </mxGraphModel>
    </diagram>
    <diagram id="EF6s0xJ8y6schOU8f0pU" name="Logisch">
        <mxGraphModel dx="960" dy="560" grid="1" gridSize="10" guides="1" tooltips="1" connect="1" arrows="1" fold="1" page="1" pageScale="1" pageWidth="827" pageHeight="1169" math="0" shadow="0">
            <root>
                <mxCell id="0"/>
                <mxCell id="1" parent="0"/>
            </root>
        </mxGraphModel>
    </diagram>
</mxfile>